<svg width="1024" height="1024" viewBox="0 0 1024 1024" xmlns="http://www.w3.org/2000/svg">
  <rect width="1024" height="1024" rx="190" fill="#000000"/>

  <g transform="translate(-76 0)">
  <!-- K -->
  <path d="M282 300H356V724H282V300Z" fill="#FFFFFF"/>
  <path d="M357 512L546 300H640L455 508L652 724H552L357 512Z" fill="#FFFFFF"/>

  <!-- Diagonal slash -->
  <rect x="507" y="330" width="26" height="398" rx="13" transform="rotate(27 520 529)" fill="#FFFFFF"/>

  <!-- S -->
  <path d="M720 314
           C812 314 874 360 890 430
           H808
           C795 398 765 382 718 382
           C671 382 644 398 644 428
           C644 456 664 468 727 481
           C833 503 894 536 894 619
           C894 696 824 742 724 742
           C622 742 558 694 542 619
           H626
           C640 655 674 674 728 674
           C778 674 810 657 810 626
           C810 596 787 582 720 568
           C617 547 562 512 562 435
           C562 363 626 314 720 314Z"
        fill="#FFFFFF"/>
  </g>
</svg>
